<mxfile host="app.diagrams.net" modified="2021-01-19T02:30:22.212Z" agent="5.0 (Macintosh; Intel Mac OS X 11_1_0) AppleWebKit/537.36 (KHTML, like Gecko) Chrome/88.0.4324.87 Safari/537.36" etag="JPf98oQKDzYJGkZbWXwk" version="14.1.2" type="github">
  <diagram id="Fc3q5jjStuBERxubxSuV" name="Page-1">
    <mxGraphModel dx="321" dy="379" grid="0" gridSize="10" guides="1" tooltips="1" connect="1" arrows="1" fold="1" page="1" pageScale="1" pageWidth="827" pageHeight="1169" math="0" shadow="0">
      <root>
        <mxCell id="0" />
        <mxCell id="1" parent="0" />
        <mxCell id="1CHEex-SwjaPL5ypNIB1-2" value="" style="endArrow=classic;html=1;strokeWidth=1;endSize=4;" parent="1" source="O125kynUwDNl88sHrk_m-7" edge="1">
          <mxGeometry x="147.46944569625958" y="402.5" width="42.67688147814331" height="50.000000000000014" as="geometry">
            <mxPoint x="160.5792907618783" y="512.9166666666666" as="sourcePoint" />
            <mxPoint x="472" y="513" as="targetPoint" />
          </mxGeometry>
        </mxCell>
        <mxCell id="1CHEex-SwjaPL5ypNIB1-3" value="" style="shape=curlyBracket;whiteSpace=wrap;html=1;rounded=1;rotation=90;" parent="1" vertex="1">
          <mxGeometry x="218.51999999999998" y="429" width="16.75" height="132.14" as="geometry" />
        </mxCell>
        <mxCell id="1CHEex-SwjaPL5ypNIB1-4" value="&lt;font style=&quot;font-size: 6px&quot;&gt;200ms&lt;/font&gt;" style="text;html=1;strokeColor=none;fillColor=none;align=center;verticalAlign=middle;whiteSpace=wrap;rounded=0;" parent="1" vertex="1">
          <mxGeometry x="210.81900856241552" y="470" width="32.161297881928796" height="13.000000000000004" as="geometry" />
        </mxCell>
        <mxCell id="1CHEex-SwjaPL5ypNIB1-10" value="&lt;font style=&quot;font-size: 6px&quot;&gt;fn&lt;/font&gt;" style="text;html=1;strokeColor=none;fillColor=none;align=center;verticalAlign=middle;whiteSpace=wrap;rounded=0;" parent="1" vertex="1">
          <mxGeometry x="147.58" y="517.17" width="27.78264984227129" height="7.780000000000002" as="geometry" />
        </mxCell>
        <mxCell id="1CHEex-SwjaPL5ypNIB1-15" value="" style="ellipse;whiteSpace=wrap;html=1;aspect=fixed;gradientDirection=east;strokeColor=#FF3333;" parent="1" vertex="1">
          <mxGeometry x="462.7956962595764" y="452.44" width="9.014718080346938" height="9.014718080346938" as="geometry" />
        </mxCell>
        <mxCell id="1CHEex-SwjaPL5ypNIB1-16" value="" style="ellipse;whiteSpace=wrap;html=1;aspect=fixed;gradientDirection=east;strokeColor=#FF3333;fillColor=#FF3333;" parent="1" vertex="1">
          <mxGeometry x="462.7956962595764" y="475.44" width="9.014718080346938" height="9.014718080346938" as="geometry" />
        </mxCell>
        <mxCell id="1CHEex-SwjaPL5ypNIB1-17" value="&lt;font style=&quot;font-size: 6px&quot;&gt;函数被调用&lt;/font&gt;" style="text;html=1;strokeColor=none;fillColor=none;align=center;verticalAlign=middle;whiteSpace=wrap;rounded=0;" parent="1" vertex="1">
          <mxGeometry x="474.0026453357368" y="448.44" width="32.161297881928796" height="13.000000000000004" as="geometry" />
        </mxCell>
        <mxCell id="1CHEex-SwjaPL5ypNIB1-18" value="&lt;font style=&quot;font-size: 6px&quot;&gt;函数被执行&lt;/font&gt;" style="text;html=1;strokeColor=none;fillColor=none;align=center;verticalAlign=middle;whiteSpace=wrap;rounded=0;" parent="1" vertex="1">
          <mxGeometry x="474.0026453357368" y="470" width="32.161297881928796" height="13.000000000000004" as="geometry" />
        </mxCell>
        <mxCell id="1CHEex-SwjaPL5ypNIB1-19" value="" style="ellipse;whiteSpace=wrap;html=1;aspect=fixed;gradientDirection=east;strokeColor=#FF3333;" parent="1" vertex="1">
          <mxGeometry x="209.51309598918434" y="508.15999999999997" width="9.014718080346938" height="9.014718080346938" as="geometry" />
        </mxCell>
        <mxCell id="1CHEex-SwjaPL5ypNIB1-21" value="" style="endArrow=none;html=1;strokeWidth=1;endSize=4;endFill=0;" parent="1" target="1CHEex-SwjaPL5ypNIB1-19" edge="1">
          <mxGeometry x="147.46944569625958" y="402.5" width="42.67688147814331" height="50.000000000000014" as="geometry">
            <mxPoint x="160.5792907618783" y="512.9166666666665" as="sourcePoint" />
            <mxPoint x="296.19837764758904" y="512.9166666666665" as="targetPoint" />
          </mxGeometry>
        </mxCell>
        <mxCell id="1CHEex-SwjaPL5ypNIB1-24" value="" style="shape=curlyBracket;whiteSpace=wrap;html=1;rounded=1;rotation=90;" parent="1" vertex="1">
          <mxGeometry x="352" y="427.86" width="16.75" height="134.41" as="geometry" />
        </mxCell>
        <mxCell id="1CHEex-SwjaPL5ypNIB1-7" value="" style="ellipse;whiteSpace=wrap;html=1;aspect=fixed;gradientDirection=east;strokeColor=#FF3333;fillColor=#FF3333;" parent="1" vertex="1">
          <mxGeometry x="156.96278177825934" y="507.15579710144925" width="9.014718080346938" height="9.014718080346938" as="geometry" />
        </mxCell>
        <mxCell id="1CHEex-SwjaPL5ypNIB1-30" value="..." style="text;html=1;strokeColor=none;fillColor=none;align=center;verticalAlign=middle;whiteSpace=wrap;rounded=0;" parent="1" vertex="1">
          <mxGeometry x="471.8087967552952" y="497.17" width="34.14150518251465" height="20.000000000000004" as="geometry" />
        </mxCell>
        <mxCell id="1CHEex-SwjaPL5ypNIB1-50" value="" style="group" parent="1" vertex="1" connectable="0">
          <mxGeometry x="184" y="521" width="123.80000000000001" height="27" as="geometry" />
        </mxCell>
        <mxCell id="1CHEex-SwjaPL5ypNIB1-43" value="" style="rounded=1;whiteSpace=wrap;html=1;shadow=0;sketch=0;fillColor=#FFFFFF;gradientColor=none;align=center;arcSize=19;direction=west;" parent="1CHEex-SwjaPL5ypNIB1-50" vertex="1">
          <mxGeometry x="-21" y="10.020000000000003" width="144.8" height="16.98" as="geometry" />
        </mxCell>
        <mxCell id="1CHEex-SwjaPL5ypNIB1-45" value="" style="triangle;whiteSpace=wrap;html=1;rounded=0;shadow=0;sketch=0;strokeColor=#000000;fillColor=#FFFFFF;gradientColor=none;direction=east;" parent="1CHEex-SwjaPL5ypNIB1-50" vertex="1">
          <mxGeometry x="-11.316176470588246" y="2.996670366259716" width="7.28235294117647" height="22.974472807991145" as="geometry" />
        </mxCell>
        <mxCell id="1CHEex-SwjaPL5ypNIB1-49" value="" style="rounded=0;whiteSpace=wrap;html=1;shadow=0;sketch=0;fillColor=#FFFFFF;gradientColor=none;strokeColor=#FFFFFF;direction=west;" parent="1CHEex-SwjaPL5ypNIB1-50" vertex="1">
          <mxGeometry x="-18" y="11.02" width="21.25" height="14.98" as="geometry" />
        </mxCell>
        <mxCell id="1CHEex-SwjaPL5ypNIB1-44" value="&lt;span style=&quot;font-size: 6px&quot;&gt;无论这段时间间隔内有多少次调用最终只执行一次&lt;/span&gt;" style="text;html=1;strokeColor=none;fillColor=none;align=center;verticalAlign=middle;whiteSpace=wrap;rounded=0;shadow=0;sketch=0;direction=west;" parent="1CHEex-SwjaPL5ypNIB1-50" vertex="1">
          <mxGeometry x="-18" y="7.019999999999982" width="138.16" height="19.98" as="geometry" />
        </mxCell>
        <mxCell id="O125kynUwDNl88sHrk_m-1" value="&lt;font style=&quot;font-size: 6px&quot;&gt;200ms&lt;/font&gt;" style="text;html=1;strokeColor=none;fillColor=none;align=center;verticalAlign=middle;whiteSpace=wrap;rounded=0;" parent="1" vertex="1">
          <mxGeometry x="345.98" y="472.44" width="32.161297881928796" height="13.000000000000004" as="geometry" />
        </mxCell>
        <mxCell id="O125kynUwDNl88sHrk_m-2" value="" style="ellipse;whiteSpace=wrap;html=1;aspect=fixed;gradientDirection=east;strokeColor=#FF3333;" parent="1" vertex="1">
          <mxGeometry x="245" y="508.16" width="9.014718080346938" height="9.014718080346938" as="geometry" />
        </mxCell>
        <mxCell id="O125kynUwDNl88sHrk_m-3" value="" style="endArrow=none;html=1;strokeWidth=1;endSize=4;endFill=0;" parent="1" source="1CHEex-SwjaPL5ypNIB1-19" target="O125kynUwDNl88sHrk_m-2" edge="1">
          <mxGeometry x="147.46944569625958" y="402.5" width="42.67688147814331" height="50.000000000000014" as="geometry">
            <mxPoint x="365.5278140695269" y="971.6673590401734" as="sourcePoint" />
            <mxPoint x="619" y="972" as="targetPoint" />
          </mxGeometry>
        </mxCell>
        <mxCell id="O125kynUwDNl88sHrk_m-5" value="" style="ellipse;whiteSpace=wrap;html=1;aspect=fixed;gradientDirection=east;strokeColor=#FF3333;" parent="1" vertex="1">
          <mxGeometry x="321" y="508.16" width="9.014718080346938" height="9.014718080346938" as="geometry" />
        </mxCell>
        <mxCell id="O125kynUwDNl88sHrk_m-6" value="" style="endArrow=none;html=1;strokeWidth=1;endSize=4;endFill=0;" parent="1" source="IS7UXf5b7LacPIJSU9yz-2" target="O125kynUwDNl88sHrk_m-5" edge="1">
          <mxGeometry x="147.46944569625958" y="402.5" width="42.67688147814331" height="50.000000000000014" as="geometry">
            <mxPoint x="254.0147180803483" y="512.6673590401737" as="sourcePoint" />
            <mxPoint x="472" y="513" as="targetPoint" />
          </mxGeometry>
        </mxCell>
        <mxCell id="O125kynUwDNl88sHrk_m-7" value="" style="ellipse;whiteSpace=wrap;html=1;aspect=fixed;gradientDirection=east;strokeColor=#FF3333;fillColor=#FF3333;" parent="1" vertex="1">
          <mxGeometry x="424" y="508.16" width="9.014718080346938" height="9.014718080346938" as="geometry" />
        </mxCell>
        <mxCell id="O125kynUwDNl88sHrk_m-8" value="" style="endArrow=none;html=1;strokeWidth=1;endSize=4;endFill=0;" parent="1" source="O125kynUwDNl88sHrk_m-13" target="O125kynUwDNl88sHrk_m-7" edge="1">
          <mxGeometry x="147.46944569625958" y="402.5" width="42.67688147814331" height="50.000000000000014" as="geometry">
            <mxPoint x="330.01471808034273" y="512.6673590401737" as="sourcePoint" />
            <mxPoint x="472" y="513" as="targetPoint" />
          </mxGeometry>
        </mxCell>
        <mxCell id="O125kynUwDNl88sHrk_m-9" value="" style="ellipse;whiteSpace=wrap;html=1;aspect=fixed;gradientDirection=east;strokeColor=#FF3333;" parent="1" vertex="1">
          <mxGeometry x="345.98" y="508.15999999999997" width="9.014718080346938" height="9.014718080346938" as="geometry" />
        </mxCell>
        <mxCell id="O125kynUwDNl88sHrk_m-10" value="" style="endArrow=none;html=1;strokeWidth=1;endSize=4;endFill=0;" parent="1" source="O125kynUwDNl88sHrk_m-5" target="O125kynUwDNl88sHrk_m-9" edge="1">
          <mxGeometry x="147.46944569625958" y="402.5" width="42.67688147814331" height="50.000000000000014" as="geometry">
            <mxPoint x="330.01471808034273" y="512.6673590401737" as="sourcePoint" />
            <mxPoint x="424.0000000000042" y="512.6673590401737" as="targetPoint" />
          </mxGeometry>
        </mxCell>
        <mxCell id="O125kynUwDNl88sHrk_m-11" value="" style="ellipse;whiteSpace=wrap;html=1;aspect=fixed;gradientDirection=east;strokeColor=#FF3333;" parent="1" vertex="1">
          <mxGeometry x="364" y="508.15999999999997" width="9.014718080346938" height="9.014718080346938" as="geometry" />
        </mxCell>
        <mxCell id="O125kynUwDNl88sHrk_m-12" value="" style="endArrow=none;html=1;strokeWidth=1;endSize=4;endFill=0;" parent="1" source="O125kynUwDNl88sHrk_m-9" target="O125kynUwDNl88sHrk_m-11" edge="1">
          <mxGeometry x="147.46944569625958" y="402.5" width="42.67688147814331" height="50.000000000000014" as="geometry">
            <mxPoint x="354.9947180803574" y="512.6673590401733" as="sourcePoint" />
            <mxPoint x="424.00094799465296" y="512.5749198392398" as="targetPoint" />
          </mxGeometry>
        </mxCell>
        <mxCell id="O125kynUwDNl88sHrk_m-13" value="" style="ellipse;whiteSpace=wrap;html=1;aspect=fixed;gradientDirection=east;strokeColor=#FF3333;" parent="1" vertex="1">
          <mxGeometry x="386" y="508.16" width="9.014718080346938" height="9.014718080346938" as="geometry" />
        </mxCell>
        <mxCell id="O125kynUwDNl88sHrk_m-14" value="" style="endArrow=none;html=1;strokeWidth=1;endSize=4;endFill=0;" parent="1" source="O125kynUwDNl88sHrk_m-11" target="O125kynUwDNl88sHrk_m-13" edge="1">
          <mxGeometry x="147.46944569625958" y="402.5" width="42.67688147814331" height="50.000000000000014" as="geometry">
            <mxPoint x="373.01471808033216" y="512.6673590401733" as="sourcePoint" />
            <mxPoint x="424.00160176232987" y="512.5472055127643" as="targetPoint" />
          </mxGeometry>
        </mxCell>
        <mxCell id="IS7UXf5b7LacPIJSU9yz-2" value="" style="ellipse;whiteSpace=wrap;html=1;aspect=fixed;gradientDirection=east;strokeColor=#FF3333;fillColor=#FF3333;" vertex="1" parent="1">
          <mxGeometry x="289" y="508.16" width="9.014718080346938" height="9.014718080346938" as="geometry" />
        </mxCell>
        <mxCell id="IS7UXf5b7LacPIJSU9yz-3" value="" style="endArrow=none;html=1;strokeWidth=1;endSize=4;endFill=0;" edge="1" parent="1" source="O125kynUwDNl88sHrk_m-2" target="IS7UXf5b7LacPIJSU9yz-2">
          <mxGeometry x="147.46944569625958" y="402.5" width="42.67688147814331" height="50.000000000000014" as="geometry">
            <mxPoint x="254.01471808034898" y="512.6673590401736" as="sourcePoint" />
            <mxPoint x="321.00000000000637" y="512.6673590401736" as="targetPoint" />
          </mxGeometry>
        </mxCell>
      </root>
    </mxGraphModel>
  </diagram>
</mxfile>
